<?xml version="1.0" encoding="UTF-8"?>
<svg version="1.1" xmlns="http://www.w3.org/2000/svg" width="500" height="500">
<path d="M0 0 C165 0 330 0 500 0 C500 165 500 330 500 500 C335 500 170 500 0 500 C0 335 0 170 0 0 Z " fill="#000000" transform="translate(0,0)"/>
<path d="M0 0 C8.3325 -0.04125 16.665 -0.0825 25.25 -0.125 C27.83489258 -0.14320801 30.41978516 -0.16141602 33.08300781 -0.18017578 C50.68861708 -0.25449745 68.30233888 -0.18216023 85.25 5.125 C86.75457764 5.58241577 86.75457764 5.58241577 88.28955078 6.04907227 C101.30415175 10.16163611 112.84240375 15.71089711 123 25 C123.63164062 25.55171875 124.26328125 26.1034375 124.9140625 26.671875 C130.02814794 31.40296726 133.53076656 36.99894724 137 43 C137.79083984 44.33998047 137.79083984 44.33998047 138.59765625 45.70703125 C143.15198194 54.03527388 145.34318847 62.82150919 147.52270508 71.9921875 C147.8469393 73.35612725 148.19189816 74.71527212 148.55517578 76.06933594 C149.58581168 80.54258987 149.0494097 85.45430803 149 90 C145.04 90 141.08 90 137 90 C136.82984375 89.09121094 136.6596875 88.18242187 136.484375 87.24609375 C132.59597792 67.08020463 128.10598811 49.6894627 113 35 C112.484375 34.45214844 111.96875 33.90429688 111.4375 33.33984375 C102.39072162 24.50509924 88.08439547 19.48168926 76 17 C75.15904785 16.82484863 74.3180957 16.64969727 73.45166016 16.46923828 C53.14433864 12.42472913 34.00608137 12.56773193 13 12 C13 38.07 13 64.14 13 91 C8.71 91 4.42 91 0 91 C0 60.97 0 30.94 0 0 Z " fill="#F7F0EE" transform="translate(89,140)"/>
<path d="M0 0 C4.29 0 8.58 0 13 0 C13 25.41 13 50.82 13 77 C70.19875488 76.62731375 70.19875488 76.62731375 117.625 48.4375 C128.73049133 34.97471098 133.37795443 17.92411235 136 1 C140.29 1 144.58 1 149 1 C147.31110627 26.67118475 137.21595492 48.58681513 118.6328125 66.25 C87.01143428 93.50613746 37.63688116 90 0 90 C0 60.3 0 30.6 0 0 Z " fill="#F7EFED" transform="translate(89,269)"/>
<path d="M0 0 C1.22074219 0.42539063 2.44148438 0.85078125 3.69921875 1.2890625 C23.88088932 8.63724758 39.33281653 23.27217243 48.5234375 42.59765625 C51.49198476 49.43788022 53.48840604 55.51110746 53 63 C48.71 63 44.42 63 40 63 C39.70867187 62.04480469 39.41734375 61.08960938 39.1171875 60.10546875 C33.59976423 42.50182584 25.03055392 26.82564654 8.34106445 17.76586914 C1.00321675 13.9817158 -5.66825588 11.42679313 -14 11 C-15.18770996 10.9386084 -15.18770996 10.9386084 -16.39941406 10.87597656 C-36.93306298 9.96754091 -54.14890749 13.15028861 -70.4375 26.375 C-86.57565378 41.65474134 -92.69258797 64.32646522 -94.640625 85.71875 C-95 89 -95 89 -96 91 C-100.29 91 -104.58 91 -109 91 C-110.38957729 65.52441626 -99.32793401 39.08089949 -83.2109375 19.8671875 C-63.70833516 -1.29521078 -27.03778617 -9.83864722 0 0 Z " fill="#F7EFED" transform="translate(373,139)"/>
<path d="M0 0 C4.29 0 8.58 0 13 0 C13.22042969 1.60101563 13.22042969 1.60101563 13.4453125 3.234375 C17.13632879 28.37210851 24.29442276 52.25389639 45.2890625 68.2265625 C61.69296151 78.95764341 83.03271797 80.62476388 101.97338867 76.87109375 C117.4284403 73.30764601 129.71793226 65.13600299 138.375 51.6875 C143.08498841 43.5222332 146.03059175 34.90822475 149 26 C153.29 26 157.58 26 162 26 C161.76584373 42.85925164 152.46596773 58.37376985 141.0625 70.375 C123.33946906 86.95124659 101.24502791 92.87160674 77.45263672 92.13623047 C56.44707058 90.9694869 37.31349202 81.89508108 23.015625 66.5625 C7.7718033 49.21807582 -0.75165772 22.92556057 0 0 Z " fill="#F7EFED" transform="translate(264,270)"/>
<path d="M0 0 C4.31791908 2.39884393 4.31791908 2.39884393 6 5 C6.95222924 9.72243771 6.59342295 13.67828525 4.625 18.0625 C2.13826553 21.02745264 1.10998939 20.98935587 -2.875 21.375 C-6.02727367 21.30049171 -6.84388675 21.11318211 -9.5 19.1875 C-11.72646116 14.45627004 -11.88502228 10.13312923 -11 5 C-7.97636659 0.46454989 -5.41889273 -1.10589648 0 0 Z " fill="#040404" transform="translate(240,238)"/>
<path d="M0 0 C6.75535947 0 10.0085915 0.20801873 14.875 4.75 C16.52659363 8.05318727 16.44042955 10.35072662 16 14 C12.92307692 19.53846154 12.92307692 19.53846154 10 21 C6.7 21 3.4 21 0 21 C0 14.07 0 7.14 0 0 Z " fill="#E0D9D7" transform="translate(137,238)"/>
<path d="M0 0 C0.99 0 1.98 0 3 0 C4.70060743 2.13824216 6.20205658 4.22089861 7.6875 6.5 C8.10322266 7.12003906 8.51894531 7.74007812 8.94726562 8.37890625 C9.97403506 9.91315943 10.98822225 11.45581929 12 13 C12.33 8.71 12.66 4.42 13 0 C13.99 0 14.98 0 16 0 C16 6.93 16 13.86 16 21 C15.01 21 14.02 21 13 21 C11.29589827 18.69254619 9.79183756 16.44432809 8.3125 14 C7.68891602 12.99839844 7.68891602 12.99839844 7.05273438 11.9765625 C6.02555776 10.32363462 5.01152664 8.66255112 4 7 C3.67 11.62 3.34 16.24 3 21 C2.01 21 1.02 21 0 21 C0 14.07 0 7.14 0 0 Z " fill="#DFD9D7" transform="translate(280,238)"/>
<path d="M0 0 C4.31791908 2.39884393 4.31791908 2.39884393 6 5 C6.95222924 9.72243771 6.59342295 13.67828525 4.625 18.0625 C2.13826553 21.02745264 1.10998939 20.98935587 -2.875 21.375 C-6.02727367 21.30049171 -6.84388675 21.11318211 -9.5 19.1875 C-11.72646116 14.45627004 -11.88502228 10.13312923 -11 5 C-7.97636659 0.46454989 -5.41889273 -1.10589648 0 0 Z M-6 3 C-8.14553377 6.21830065 -8.29583868 7.26786507 -8.3125 11 C-8.32925781 11.86625 -8.34601563 12.7325 -8.36328125 13.625 C-8.17923646 16.04774824 -8.17923646 16.04774824 -6.671875 17.8203125 C-4.92335004 19.30842519 -4.92335004 19.30842519 -1.9375 18.875 C1.29255415 18.25349587 1.29255415 18.25349587 3 15 C3.35293451 12.81971604 3.35293451 12.81971604 3.3125 10.5 C3.32925781 9.7265625 3.34601563 8.953125 3.36328125 8.15625 C2.91138579 5.47403181 2.16392342 4.60777488 0 3 C-3.04230823 2.49989476 -3.04230823 2.49989476 -6 3 Z " fill="#E6DFDD" transform="translate(240,238)"/>
<path d="M0 0 C0.99 0 1.98 0 3 0 C3 6.93 3 13.86 3 21 C-2.10618352 19.72345412 -3.20021883 17.18575104 -5.75 12.9375 C-6.16121094 12.27427734 -6.57242187 11.61105469 -6.99609375 10.92773438 C-8.00824336 9.29181814 -9.00557507 7.64675068 -10 6 C-10.33 10.95 -10.66 15.9 -11 21 C-11.66 21 -12.32 21 -13 21 C-13 14.4 -13 7.8 -13 1 C-7.95425077 2.26143731 -7.46529723 3.76327939 -4.75 8.0625 C-4.04359375 9.16722656 -3.3371875 10.27195313 -2.609375 11.41015625 C-2.07828125 12.26480469 -1.5471875 13.11945313 -1 14 C-0.67 9.38 -0.34 4.76 0 0 Z " fill="#DCD5D3" transform="translate(268,238)"/>
<path d="M0 0 C4.29 0 8.58 0 13 0 C13 0.99 13 1.98 13 3 C9.7 3 6.4 3 3 3 C3 4.98 3 6.96 3 9 C5.97 9 8.94 9 12 9 C12 9.99 12 10.98 12 12 C9.03 12 6.06 12 3 12 C3 14.31 3 16.62 3 19 C6.3 19 9.6 19 13 19 C13 19.66 13 20.32 13 21 C8.71 21 4.42 21 0 21 C0 14.07 0 7.14 0 0 Z " fill="#D3CDCB" transform="translate(161,238)"/>
<path d="M0 0 C7 1 7 1 8.9375 2.125 C10.65036957 5.14771101 10.35727863 7.60585305 10 11 C8.9375 13.375 8.9375 13.375 7 15 C4.69 15.33 2.38 15.66 0 16 C0 10.72 0 5.44 0 0 Z " fill="#090909" transform="translate(140,241)"/>
<path d="M0 0 C2.875 1.8125 2.875 1.8125 5 4 C5 4.99 5 5.98 5 7 C4.01 7 3.02 7 2 7 C1.34 6.01 0.68 5.02 0 4 C-3.08365871 3.7497843 -3.08365871 3.7497843 -6 4 C-7.16983345 6.3396669 -7.1661241 7.83391527 -7.1875 10.4375 C-7.20167969 11.21996094 -7.21585938 12.00242188 -7.23046875 12.80859375 C-7.14086064 15.29205987 -7.14086064 15.29205987 -5 18 C-2.02934491 17.65772428 -2.02934491 17.65772428 1 17 C1.33 16.34 1.66 15.68 2 15 C2.99 15 3.98 15 5 15 C3.25 19.875 3.25 19.875 1 21 C-6.31444368 21.46440912 -6.31444368 21.46440912 -8.9375 19.6875 C-11.73889577 15.23822436 -11.71008464 10.06742222 -11 5 C-7.92883052 0.48357429 -5.43434422 -1.01893954 0 0 Z " fill="#EAE3E1" transform="translate(216,238)"/>
<path d="M0 0 C2.875 2.375 2.875 2.375 5 5 C5 5.66 5 6.32 5 7 C4.01 7 3.02 7 2 7 C1.34 6.01 0.68 5.02 0 4 C-3.04195427 3.66659529 -3.04195427 3.66659529 -6 4 C-7.33901792 5.11126659 -7.33901792 5.11126659 -7.09765625 7.94140625 C-7.08605469 9.13636719 -7.07445312 10.33132812 -7.0625 11.5625 C-7.05347656 12.76003906 -7.04445313 13.95757812 -7.03515625 15.19140625 C-7.02355469 16.11824219 -7.01195312 17.04507813 -7 18 C-4.36 18 -1.72 18 1 18 C1.33 16.68 1.66 15.36 2 14 C2.99 14 3.98 14 5 14 C3.92598892 16.91517292 3.22189824 18.77810176 1 21 C-5.92204042 21.78152069 -5.92204042 21.78152069 -9.5 19.1875 C-11.72646116 14.45627004 -11.88502228 10.13312923 -11 5 C-7.98994095 0.48491143 -5.40761204 -1.12658584 0 0 Z " fill="#F0E9E7" transform="translate(338,238)"/>
<path d="M0 0 C0.99 0 1.98 0 3 0 C3.34933594 0.92683594 3.69867188 1.85367188 4.05859375 2.80859375 C4.51363281 4.00613281 4.96867188 5.20367187 5.4375 6.4375 C5.88996094 7.63246094 6.34242188 8.82742187 6.80859375 10.05859375 C7.7144826 12.84445723 7.7144826 12.84445723 9 14 C10.65 9.38 12.3 4.76 14 0 C14.99 0 15.98 0 17 0 C15.41429736 7.20773928 13.60251779 13.54031293 10 20 C9.01 20 8.02 20 7 20 C5.83072496 16.85512993 4.66501836 13.70894919 3.5 10.5625 C3.16613281 9.66466797 2.83226562 8.76683594 2.48828125 7.84179688 C2.17246094 6.98779297 1.85664063 6.13378906 1.53125 5.25390625 C1.09135742 4.06776733 1.09135742 4.06776733 0.64257812 2.85766602 C0 1 0 1 0 0 Z " fill="#E4DDDB" transform="translate(181,239)"/>
<path d="M0 0 C3.96 0 7.92 0 12 0 C12 0.66 12 1.32 12 2 C8.7 2 5.4 2 2 2 C2 4.31 2 6.62 2 9 C4.97 9 7.94 9 11 9 C11 9.66 11 10.32 11 11 C8.03 11 5.06 11 2 11 C2 13.31 2 15.62 2 18 C5.63 18 9.26 18 13 18 C13 18.66 13 19.32 13 20 C8.71 20 4.42 20 0 20 C0 13.4 0 6.8 0 0 Z " fill="#F6EEEC" transform="translate(306,239)"/>
<path d="M0 0 C5.28 0 10.56 0 16 0 C16 0.99 16 1.98 16 3 C13.69 3 11.38 3 9 3 C9 8.94 9 14.88 9 21 C8.34 21 7.68 21 7 21 C7 15.06 7 9.12 7 3 C4.69 3 2.38 3 0 3 C0 2.01 0 1.02 0 0 Z " fill="#E0D9D7" transform="translate(349,238)"/>
<path d="M0 0 C3.9661411 0.82627939 5.48622355 2.51974674 8 5.625 C8 6.285 8 6.945 8 7.625 C7.01 7.625 6.02 7.625 5 7.625 C4.34 6.635 3.68 5.645 3 4.625 C-0.04195427 4.29159529 -0.04195427 4.29159529 -3 4.625 C-4.58272601 6.20772601 -4.34735747 8.00534003 -4.5625 10.1875 C-4.64628906 11.01378906 -4.73007812 11.84007812 -4.81640625 12.69140625 C-4.87699219 13.32949219 -4.93757813 13.96757812 -5 14.625 C-5.33 14.625 -5.66 14.625 -6 14.625 C-6.144375 13.51125 -6.28875 12.3975 -6.4375 11.25 C-6.78372035 7.80357953 -6.78372035 7.80357953 -8 5.625 C-3.91139241 0.81487342 -3.91139241 0.81487342 0 0 Z " fill="#D5CECD" transform="translate(335,237.375)"/>
<path d="M0 0 C1.32 0.33 2.64 0.66 4 1 C5.75 4.0625 5.75 4.0625 7 7 C6.01 7 5.02 7 4 7 C3.67 6.34 3.34 5.68 3 5 C2.67 9.95 2.34 14.9 2 20 C1.34 20 0.68 20 0 20 C0 13.4 0 6.8 0 0 Z " fill="#F6EFED" transform="translate(255,239)"/>
<path d="M0 0 C2.442234 1.44868881 3.9741784 2.92594455 6 5 C6 5.99 6 6.98 6 8 C5.34 8 4.68 8 4 8 C4 9.65 4 11.3 4 13 C3.67 13 3.34 13 3 13 C2.67 10.03 2.34 7.06 2 4 C-2.0100934 3.82135369 -2.0100934 3.82135369 -6 4 C-6.66 4.66 -7.32 5.32 -8 6 C-8 5.34 -8 4.68 -8 4 C-8.66 3.67 -9.32 3.34 -10 3 C-6.69325426 -0.05238068 -4.46032201 -0.71365152 0 0 Z " fill="#D9D2D0" transform="translate(240,238)"/>
<path d="M0 0 C2.875 1.8125 2.875 1.8125 5 4 C5 4.99 5 5.98 5 7 C4.01 7 3.02 7 2 7 C1.34 6.01 0.68 5.02 0 4 C-3 3.58333333 -3 3.58333333 -6 4 C-6.66 4.66 -7.32 5.32 -8 6 C-8.99 6.33 -9.98 6.66 -11 7 C-8.94995143 1.00755033 -6.38855936 -0.76662712 0 0 Z " fill="#D6D0CE" transform="translate(216,238)"/>
<path d="M0 0 C0.66 0 1.32 0 2 0 C2 6.6 2 13.2 2 20 C1.01 20 0.02 20 -1 20 C-1.66 18.35 -2.32 16.7 -3 15 C-2.01 15 -1.02 15 0 15 C0 10.05 0 5.1 0 0 Z " fill="#F8F0EE" transform="translate(294,239)"/>
<path d="M0 0 C0.66 0.33 1.32 0.66 2 1 C2.33722141 5.21526759 2.21887045 7.57789269 0.25 11.375 C-2 14 -2 14 -4.25 14.875 C-4.8275 14.91625 -5.405 14.9575 -6 15 C-6.33 14.01 -6.66 13.02 -7 12 C-6.04673828 11.64615234 -6.04673828 11.64615234 -5.07421875 11.28515625 C-2.82009167 10.18168222 -2.82009167 10.18168222 -2.20703125 7.87109375 C-2.07683594 7.06800781 -1.94664062 6.26492187 -1.8125 5.4375 C-1.06370656 1.06370656 -1.06370656 1.06370656 0 0 Z " fill="#D9D2D1" transform="translate(151,244)"/>
<path d="M0 0 C0.99 0.33 1.98 0.66 3 1 C2.34 1 1.68 1 1 1 C1 5.95 1 10.9 1 16 C-4 15 -4 15 -6.3125 12.125 C-8 9 -8 9 -8 6 C-4.00003714 7.33332095 -3.16217663 9.4957827 -1 13 C-0.67 8.71 -0.34 4.42 0 0 Z " fill="#BEB8B7" transform="translate(293,238)"/>
<path d="M0 0 C3.96 0 7.92 0 12 0 C12 0.66 12 1.32 12 2 C8.7 2 5.4 2 2 2 C2 4.31 2 6.62 2 9 C1.34 9 0.68 9 0 9 C0 6.03 0 3.06 0 0 Z " fill="#EFE8E6" transform="translate(162,239)"/>
<path d="M0 0 C0.99 0 1.98 0 3 0 C2.01 3.96 1.02 7.92 0 12 C-0.99 11.67 -1.98 11.34 -3 11 C-2.32829194 7.1936543 -1.27253436 3.64793184 0 0 Z " fill="#D8D1CF" transform="translate(195,239)"/>
<path d="M0 0 C2.6875 -0.3125 2.6875 -0.3125 6 0 C8.875 2.375 8.875 2.375 11 5 C11 5.66 11 6.32 11 7 C10.01 7 9.02 7 8 7 C7.34 6.01 6.68 5.02 6 4 C3.43717258 3.27034634 3.43717258 3.27034634 1 3 C0.67 2.01 0.34 1.02 0 0 Z " fill="#CDC6C5" transform="translate(332,238)"/>
<path d="M0 0 C0.99 0 1.98 0 3 0 C1.92598892 2.91517292 1.22189824 4.77810176 -1 7 C-4.125 7.125 -4.125 7.125 -7 7 C-7 6.34 -7 5.68 -7 5 C-5.02 4.67 -3.04 4.34 -1 4 C-0.67 2.68 -0.34 1.36 0 0 Z " fill="#E3DCDA" transform="translate(340,252)"/>
<path d="M0 0 C0 0.66 0 1.32 0 2 C-0.94875 2.28875 -1.8975 2.5775 -2.875 2.875 C-6.05211578 3.76825109 -6.05211578 3.76825109 -8 6 C-8 5.34 -8 4.68 -8 4 C-8.66 3.67 -9.32 3.34 -10 3 C-6.68152292 -0.06320961 -4.44849969 -0.3033068 0 0 Z " fill="#D1CBC9" transform="translate(240,238)"/>
<path d="M0 0 C-0.8125 2.4375 -0.8125 2.4375 -2 5 C-2.99 5.33 -3.98 5.66 -5 6 C-5.33 5.01 -5.66 4.02 -6 3 C-3.375 0 -3.375 0 0 0 Z " fill="#E2DBD9" transform="translate(221,253)"/>
</svg>
